<svg width="1674" height="1080" viewBox="0 0 1674 1080" fill="none" xmlns="http://www.w3.org/2000/svg">
<rect width="281.786" height="1080.05" fill="url(#paint0_linear_6_114)"/>
<g filter="url(#filter0_d_6_114)">
<path d="M273.12 936.711C517.007 1050.37 912.443 1050.37 1156.36 936.711C1400.28 823.051 1400.25 638.784 1156.36 525.124C912.472 411.464 517.007 411.438 273.091 525.124C29.1746 638.81 29.2037 823.051 273.12 936.711Z" fill="#FAFAFA"/>
</g>
<path d="M918.818 957.589C968.127 957.589 1008.1 940.591 1008.1 919.624C1008.1 898.657 968.127 881.659 918.818 881.659C869.509 881.659 829.537 898.657 829.537 919.624C829.537 940.591 869.509 957.589 918.818 957.589Z" fill="#F0F0F0"/>
<path d="M1306.61 470.1H1646.84C1652.6 470.1 1655.48 470.1 1657.86 470.69C1665.05 472.475 1670.66 478.089 1672.45 485.278C1673.04 487.653 1673.04 490.535 1673.04 496.3V550.78H1480.33H1306.61V470.1Z" fill="#D0BADA"/>
<path d="M220.663 263.111V393.728C220.663 398.013 224.04 399.778 228.232 397.623L568.183 222.524C570.383 221.241 572.214 219.515 573.529 217.486C574.844 215.456 575.605 213.179 575.752 210.838V80.1172C575.752 75.8325 572.346 74.0667 568.183 76.222L228.232 251.322C226.012 252.61 224.167 254.351 222.851 256.401C221.535 258.451 220.785 260.751 220.663 263.111Z" fill="#F0F0F0"/>
<path d="M244.33 261.06L346.216 208.605C350.903 206.19 354.658 208.138 354.658 212.942V304.27C354.498 306.874 353.65 309.408 352.183 311.665C350.716 313.921 348.671 315.836 346.216 317.253L244.33 369.734C239.672 372.123 235.888 370.175 235.888 365.371V274.095C236.045 271.483 236.892 268.941 238.359 266.676C239.826 264.411 241.872 262.486 244.33 261.06Z" fill="#FAFAFA"/>
<path d="M326.829 254.178L296.525 310.216L281.096 302.27C279.615 301.547 277.877 301.365 276.248 301.762C274.619 302.16 273.226 303.105 272.363 304.399L235.888 360.515V365.423C235.888 370.227 239.672 372.175 244.33 369.786L346.216 317.305C348.667 315.884 350.707 313.968 352.174 311.712C353.641 309.456 354.492 306.925 354.658 304.321V272.2L334.281 253.139C333.826 252.572 333.203 252.128 332.482 251.858C331.76 251.588 330.969 251.502 330.196 251.609C329.423 251.717 328.699 252.014 328.104 252.468C327.51 252.922 327.068 253.514 326.829 254.178Z" fill="#BA68C8"/>
<path d="M251.2 294.48C257.495 290.817 262.734 285.882 266.492 280.076C270.25 274.269 272.421 267.754 272.829 261.059C272.829 255.424 270.791 251.348 267.443 249.166L244.33 261.059C241.879 262.481 239.838 264.397 238.372 266.653C236.905 268.908 236.054 271.44 235.888 274.043V295.778C239.876 297.856 245.232 297.544 251.2 294.48Z" fill="#BA68C8"/>
<path d="M392.677 193.206L545.768 114.342C549.262 112.551 552.085 113.823 552.085 117.199C551.932 119.091 551.279 120.923 550.182 122.548C549.084 124.172 547.572 125.543 545.768 126.547L392.677 205.385C389.183 207.177 386.36 205.904 386.36 202.528C386.518 200.641 387.172 198.814 388.27 197.194C389.367 195.574 390.877 194.208 392.677 193.206Z" fill="#FAFAFA"/>
<path d="M392.677 220.186L545.768 141.323C549.262 139.531 552.085 140.803 552.085 144.179C551.932 146.071 551.279 147.904 550.182 149.528C549.084 151.153 547.572 152.523 545.768 153.528L392.677 232.365C389.183 234.157 386.36 232.885 386.36 229.535C386.513 227.643 387.166 225.81 388.263 224.186C389.361 222.561 390.873 221.191 392.677 220.186Z" fill="#FAFAFA"/>
<path d="M392.677 247.167L545.768 168.329C549.262 166.537 552.085 167.81 552.085 171.16C551.932 173.051 551.279 174.884 550.182 176.508C549.084 178.133 547.572 179.503 545.768 180.508L392.677 259.346C389.183 261.163 386.36 259.891 386.36 256.515C386.513 254.623 387.166 252.791 388.263 251.166C389.361 249.542 390.873 248.171 392.677 247.167Z" fill="#FAFAFA"/>
<path d="M392.677 274.147L545.768 195.309C549.262 193.518 552.085 194.79 552.085 198.166C551.927 200.053 551.273 201.881 550.175 203.5C549.078 205.12 547.568 206.486 545.768 207.488L392.677 286.482C389.183 288.274 386.36 287.001 386.36 283.625C386.491 281.711 387.133 279.852 388.231 278.204C389.33 276.555 390.854 275.165 392.677 274.147Z" fill="#FAFAFA"/>
<path d="M149.634 674.074V482.407C149.773 480.065 150.532 477.786 151.847 475.755C153.163 473.724 154.998 472 157.202 470.722L414.306 338.287C418.468 336.132 421.874 337.872 421.874 342.182V533.849C421.728 536.19 420.966 538.467 419.651 540.497C418.337 542.526 416.505 544.252 414.306 545.535L157.202 677.969C153.01 680.125 149.634 678.385 149.634 674.074Z" fill="#F0F0F0"/>
<path d="M149.634 664.492V674.074C149.634 678.385 153.01 680.125 157.202 677.969L414.306 545.535C416.505 544.252 418.337 542.526 419.651 540.497C420.966 538.467 421.728 536.19 421.874 533.849V524.241L149.634 664.492Z" fill="#BA68C8"/>
<path d="M274.022 490.665L300.222 489.445C303.424 489.289 304.297 490.899 302.172 493.08L272.072 523.618C269.947 525.773 268.229 525.176 268.229 522.32V496.144C268.241 494.747 268.844 493.406 269.919 492.389C270.994 491.373 272.46 490.757 274.022 490.665Z" fill="#BA68C8"/>
<path d="M267.269 540.367C264.129 540.404 261.035 539.696 258.303 538.316C251.84 534.966 248.289 527.929 248.289 518.736C248.289 499.988 263.106 477.188 281.329 467.71C290.324 463.062 298.795 462.36 305.316 465.684C311.837 469.008 315.359 476.071 315.359 485.238C315.359 504.012 300.513 526.786 282.319 536.264C277.79 538.781 272.601 540.196 267.269 540.367ZM296.379 465.399C291.404 465.574 286.566 466.908 282.348 469.268C264.678 478.356 250.326 500.559 250.326 518.736C250.326 527.357 253.529 533.771 259.351 536.758C265.173 539.744 272.974 539.043 281.329 534.732C298.999 525.618 313.35 503.571 313.35 485.238C313.35 476.617 310.148 470.229 304.326 467.216C301.891 466.001 299.141 465.374 296.35 465.399H296.379Z" fill="#BA68C8"/>
<path d="M163.81 304.296L147.887 296.142C140.289 291.597 129.722 291.779 118.049 297.804C94.7603 309.749 76.0714 340.053 76.0714 365.501V371.292C76.0714 396.74 114.439 424.37 114.439 424.37L130.1 432.29C130.1 432.29 120.698 422.708 121.775 420.734C132.167 401.934 159.968 348.804 159.968 328.03V322.239C160.027 318.048 159.429 313.87 158.192 309.827L159.968 310.735L163.81 304.296ZM118.02 362.645C106.375 368.617 97.0309 363.761 97.0309 351.842C103.261 350.959 118.951 327.069 118.02 319.409C129.664 313.436 138.979 318.292 139.008 330.211C138.614 336.708 136.508 343.031 132.861 348.666C129.214 354.302 124.13 359.091 118.02 362.645Z" fill="#BA68C8"/>
<g opacity="0.2">
<path d="M163.81 304.296L147.887 296.142C140.289 291.597 129.722 291.779 118.049 297.804C94.7603 309.749 76.0714 340.053 76.0714 365.501V371.292C76.0714 396.74 114.439 424.37 114.439 424.37L130.1 432.29C130.1 432.29 120.698 422.708 121.775 420.734C132.167 401.934 159.968 348.804 159.968 328.03V322.239C160.027 318.048 159.429 313.87 158.192 309.827L159.968 310.735L163.81 304.296ZM118.02 362.645C106.375 368.617 97.0309 363.761 97.0309 351.842C103.261 350.959 118.951 327.069 118.02 319.409C129.664 313.436 138.979 318.292 139.008 330.211C138.614 336.708 136.508 343.031 132.861 348.666C129.214 354.302 124.13 359.091 118.02 362.645Z" fill="black"/>
</g>
<path d="M163.81 304.296C163.636 304.185 163.451 304.09 163.257 304.01C155.776 300.271 145.791 300.79 134.787 306.451C118.194 315.02 103.843 332.964 96.9436 351.842C94.2757 359.025 92.8618 366.531 92.7517 374.096V379.965C92.7517 399.571 117.641 422.318 129.082 431.745C129.329 431.942 129.592 432.124 129.868 432.29C130.54 432.657 131.292 432.895 132.074 432.988C132.856 433.081 133.651 433.026 134.408 432.828C135.165 432.63 135.867 432.292 136.469 431.837C137.07 431.382 137.559 430.82 137.902 430.186C147.8 412.009 176.59 357.789 176.59 336.703V330.912C176.764 317.825 171.787 308.58 163.81 304.296ZM114.177 364.229C113.935 362.994 113.818 361.743 113.828 360.489C114.212 353.99 116.311 347.662 119.953 342.022C123.595 336.382 128.677 331.588 134.787 328.03C136.008 327.403 137.283 326.864 138.601 326.42C148.382 323.252 155.776 328.264 155.776 338.832C155.384 345.327 153.278 351.647 149.631 357.278C145.984 362.909 140.898 367.693 134.787 371.24C124.511 376.589 115.953 373.369 114.177 364.229Z" fill="#BA68C8"/>
<path d="M155.776 338.858C155.384 345.353 153.278 351.673 149.631 357.304C145.984 362.935 140.898 367.719 134.787 371.266C124.511 376.46 115.953 373.369 114.177 364.229C115.511 363.81 116.798 363.28 118.02 362.645C124.126 359.089 129.206 354.3 132.848 348.664C136.49 343.029 138.59 336.707 138.979 330.211C138.992 328.948 138.866 327.687 138.601 326.446C148.382 323.278 155.776 328.29 155.776 338.858Z" fill="#BA68C8"/>
<g opacity="0.2">
<path d="M155.776 338.858C155.384 345.353 153.278 351.673 149.631 357.304C145.984 362.935 140.898 367.719 134.787 371.266C124.511 376.46 115.953 373.369 114.177 364.229C115.511 363.81 116.798 363.28 118.02 362.645C124.126 359.089 129.206 354.3 132.848 348.664C136.49 343.029 138.59 336.707 138.979 330.211C138.992 328.948 138.866 327.687 138.601 326.446C148.382 323.278 155.776 328.29 155.776 338.858Z" fill="black"/>
</g>
<path d="M461.639 661.272C461.639 661.272 472.148 601.547 448.801 550.183C425.455 498.819 393.986 495.651 377.685 502.948C361.383 510.245 371.863 538.731 386.418 557.869C405.805 582.98 437.827 637.045 436.779 685.604L461.639 661.272Z" fill="#BA68C8"/>
<path opacity="0.2" d="M461.639 661.272C461.639 661.272 472.148 601.547 448.801 550.183C425.455 498.819 393.986 495.651 377.685 502.948C361.383 510.245 371.863 538.731 386.418 557.869C405.805 582.98 437.827 637.045 436.779 685.604L461.639 661.272Z" fill="black"/>
<path d="M451.159 665.064C450.898 665.057 450.641 665.004 450.403 664.907C450.165 664.81 449.952 664.671 449.775 664.499C449.599 664.327 449.463 664.126 449.376 663.906C449.288 663.686 449.251 663.453 449.267 663.22C453.11 581.448 407.319 520.398 387.553 508.505C387.337 508.375 387.152 508.209 387.008 508.016C386.864 507.822 386.764 507.605 386.714 507.377C386.664 507.15 386.665 506.915 386.716 506.688C386.768 506.46 386.869 506.244 387.015 506.051C387.16 505.858 387.346 505.693 387.563 505.565C387.78 505.436 388.023 505.347 388.278 505.303C388.534 505.258 388.797 505.259 389.052 505.305C389.307 505.351 389.549 505.441 389.765 505.571C413.054 519.437 457.069 581.863 453.197 663.376C453.19 663.607 453.131 663.834 453.024 664.044C452.917 664.254 452.764 664.443 452.575 664.601C452.385 664.758 452.162 664.879 451.919 664.959C451.676 665.039 451.418 665.074 451.159 665.064Z" fill="white"/>
<path d="M457.505 732.19C453.517 723.257 443.212 713.285 416.751 702.639C390.289 691.992 370.378 677.788 366.71 667.504C365.606 664.664 365.462 661.597 366.295 658.684C367.128 655.771 368.902 653.14 371.397 651.119C371.397 651.119 346.449 648.522 343.305 634.889C339.375 617.699 361.179 616.582 361.179 616.582C361.179 616.582 332.563 580.643 324.966 564.647C317.368 548.651 326.13 547.69 344.586 553.792C363.042 559.895 398.207 590.614 403.651 599.989C403.651 599.989 413.17 589.602 423.417 596.431C433.664 603.261 434.159 623.697 428.104 631.072C432.187 630.393 436.403 630.785 440.242 632.2C444.081 633.615 447.377 635.992 449.733 639.044C460.154 651.223 463.589 681.683 463.589 681.683L457.505 732.19Z" fill="#BA68C8"/>
<path d="M459.368 723.88C458.926 723.875 458.498 723.74 458.151 723.496C457.803 723.252 457.556 722.912 457.447 722.53C443.3 669.946 376.142 586.018 334.427 559.324C334.214 559.189 334.034 559.018 333.896 558.821C333.758 558.624 333.664 558.405 333.621 558.176C333.578 557.947 333.585 557.713 333.644 557.486C333.702 557.26 333.81 557.046 333.961 556.857C334.112 556.667 334.303 556.506 334.524 556.383C334.744 556.26 334.99 556.177 335.247 556.138C335.504 556.099 335.767 556.106 336.02 556.158C336.274 556.21 336.514 556.306 336.726 556.441C378.965 583.473 446.967 668.465 461.319 721.699C461.433 722.157 461.341 722.636 461.064 723.034C460.786 723.432 460.345 723.717 459.834 723.828L459.368 723.88Z" fill="white"/>
<path d="M986.296 194.375C985.95 194.371 985.61 194.291 985.307 194.141L977.127 189.908C976.901 189.792 976.703 189.638 976.545 189.454C976.386 189.27 976.27 189.059 976.202 188.835C976.134 188.611 976.117 188.377 976.151 188.147C976.185 187.916 976.269 187.694 976.399 187.493C976.529 187.292 976.702 187.116 976.908 186.974C977.115 186.833 977.35 186.729 977.602 186.668C977.853 186.608 978.115 186.593 978.373 186.623C978.632 186.653 978.881 186.728 979.106 186.844L987.286 191.077C987.512 191.192 987.71 191.347 987.869 191.531C988.028 191.715 988.144 191.925 988.212 192.149C988.279 192.374 988.297 192.608 988.263 192.838C988.229 193.068 988.144 193.291 988.014 193.492C987.84 193.761 987.589 193.984 987.288 194.139C986.986 194.294 986.644 194.375 986.296 194.375Z" fill="white"/>
<path d="M457.505 348.337V734.683C457.505 738.993 460.882 740.733 465.045 738.578L970.227 478.408C972.427 477.126 974.258 475.4 975.573 473.37C976.888 471.34 977.649 469.063 977.796 466.723V80.3768C977.796 76.0662 974.39 74.3263 970.227 76.4816L465.045 336.651C462.847 337.933 461.019 339.66 459.709 341.69C458.399 343.72 457.644 345.997 457.505 348.337Z" fill="#455A64"/>
<path d="M516.629 419.696C516.629 433.173 527.894 438.262 541.838 431.095L942.311 224.835V176.119L541.838 382.354C527.894 389.547 516.629 406.244 516.629 419.696Z" fill="#F5F5F5"/>
<path d="M976.37 158.643C990.285 151.476 1001.58 156.566 1001.58 170.017C1001.58 183.468 990.285 200.191 976.37 207.358L942.456 224.835V176.119L976.37 158.643Z" fill="#BA68C8"/>
<path d="M964.143 199.698C962.693 199.716 961.265 199.384 960.01 198.737C958.463 197.814 957.225 196.535 956.426 195.036C955.626 193.537 955.296 191.873 955.468 190.22C955.678 186.155 956.977 182.195 959.256 178.671C961.535 175.147 964.729 172.161 968.568 169.965C970.034 168.898 971.829 168.255 973.715 168.121C975.601 167.987 977.488 168.368 979.125 169.214C980.762 170.059 982.071 171.33 982.879 172.855C983.687 174.381 983.955 176.09 983.647 177.755C983.431 181.818 982.129 185.776 979.85 189.299C977.572 192.823 974.382 195.809 970.548 198.01C968.616 199.063 966.407 199.645 964.143 199.698ZM974.943 171.783C973.382 171.852 971.867 172.281 970.548 173.029C967.332 174.935 964.655 177.478 962.726 180.46C960.797 183.443 959.668 186.783 959.427 190.22C959.127 191.254 959.215 192.347 959.679 193.332C960.142 194.318 960.955 195.14 961.992 195.673C963.03 196.207 964.235 196.422 965.423 196.286C966.61 196.15 967.715 195.67 968.568 194.92C971.787 193.017 974.466 190.475 976.396 187.492C978.325 184.509 979.452 181.167 979.688 177.729C979.838 176.7 979.679 175.653 979.229 174.695C978.78 173.738 978.054 172.903 977.127 172.276C976.463 171.937 975.708 171.766 974.943 171.783Z" fill="white"/>
<path d="M982.192 265.266L595.023 464.542C592.815 465.816 590.978 467.54 589.662 469.572C588.346 471.603 587.59 473.884 587.454 476.227V582.512C587.454 586.823 590.831 588.563 595.023 586.408L982.192 387.054C984.397 385.776 986.231 384.052 987.547 382.021C988.862 379.99 989.621 377.711 989.761 375.369V269.161C989.615 264.851 986.238 263.111 982.192 265.266Z" fill="#BA68C8"/>
<path opacity="0.2" d="M982.192 265.266L595.023 464.542C592.815 465.816 590.978 467.54 589.662 469.572C588.346 471.603 587.59 473.884 587.454 476.227V582.512C587.454 586.823 590.831 588.563 595.023 586.408L982.192 387.054C984.397 385.776 986.231 384.052 987.547 382.021C988.862 379.99 989.621 377.711 989.761 375.369V269.161C989.615 264.851 986.238 263.111 982.192 265.266Z" fill="white"/>
<path d="M735.772 409.776L805.928 373.629C809.421 371.837 812.245 373.11 812.245 376.485C812.087 378.373 811.433 380.2 810.335 381.82C809.238 383.439 807.728 384.806 805.928 385.808L735.772 421.955C732.279 423.746 729.455 422.474 729.455 419.098C729.613 417.211 730.268 415.384 731.365 413.764C732.463 412.144 733.972 410.778 735.772 409.776Z" fill="white"/>
<path d="M729.455 443.456C729.455 446.832 732.366 448.104 735.772 446.312L947.842 337.093C949.638 336.083 951.143 334.711 952.235 333.087C953.328 331.463 953.976 329.633 954.129 327.744C954.129 324.394 951.218 323.122 947.842 324.914L735.772 434.133C733.972 435.136 732.463 436.502 731.365 438.121C730.268 439.741 729.613 441.569 729.455 443.456Z" fill="white"/>
<path d="M729.455 467.814C729.455 471.189 732.366 472.462 735.772 470.67L947.842 361.45C949.638 360.441 951.143 359.069 952.235 357.445C953.328 355.821 953.976 353.991 954.129 352.102C954.129 348.752 951.218 347.48 947.842 349.271L735.772 458.491C733.972 459.493 732.463 460.86 731.365 462.479C730.268 464.099 729.613 465.926 729.455 467.814Z" fill="white"/>
<path d="M729.455 492.171C729.455 495.547 732.366 496.819 735.772 495.027L947.842 385.808C949.638 384.798 951.143 383.426 952.235 381.802C953.328 380.179 953.976 378.348 954.129 376.459C954.129 373.109 951.218 371.837 947.842 373.629L735.772 482.849C733.972 483.851 732.463 485.217 731.365 486.837C730.268 488.456 729.613 490.284 729.455 492.171Z" fill="white"/>
<path d="M606.958 470.618L698.249 423.591C702.441 421.461 705.817 423.201 705.817 427.486V509.362C705.675 511.703 704.916 513.982 703.601 516.012C702.285 518.043 700.452 519.768 698.249 521.047L606.958 568.048C602.796 570.204 599.39 568.464 599.39 564.179V482.303C599.53 479.961 600.288 477.682 601.603 475.651C602.919 473.62 604.754 471.896 606.958 470.618Z" fill="white"/>
<path d="M680.899 464.464L653.739 514.685L639.911 507.57C638.575 506.882 636.988 506.696 635.498 507.051C634.008 507.407 632.737 508.275 631.964 509.466L599.39 559.765V564.153C599.39 568.464 602.796 570.204 606.958 568.048L698.249 521.047C700.453 519.769 702.288 518.045 703.604 516.014C704.919 513.983 705.677 511.704 705.817 509.362V480.616L687.449 463.529C687.033 463.052 686.48 462.683 685.85 462.461C685.219 462.239 684.533 462.173 683.864 462.268C683.194 462.364 682.566 462.618 682.045 463.004C681.523 463.39 681.127 463.894 680.899 464.464Z" fill="#BA68C8"/>
<path d="M613.101 500.585C618.745 497.3 623.441 492.875 626.81 487.669C630.178 482.462 632.124 476.621 632.488 470.618C632.682 468.625 632.345 466.62 631.506 464.765C630.666 462.911 629.347 461.259 627.656 459.945L606.958 470.618C604.754 471.896 602.919 473.621 601.603 475.651C600.288 477.682 599.53 479.962 599.39 482.304V501.779C602.912 503.597 607.744 503.337 613.101 500.585Z" fill="#BA68C8"/>
<path d="M982.192 423.591L595.023 622.866C592.818 624.144 590.983 625.869 589.668 627.899C588.353 629.93 587.594 632.21 587.454 634.552V740.915C587.454 745.2 590.831 746.939 595.023 744.81L982.192 545.405C984.397 544.127 986.231 542.402 987.547 540.372C988.862 538.341 989.621 536.061 989.761 533.719V427.486C989.615 423.201 986.238 421.513 982.192 423.591Z" fill="#BA68C8"/>
<path opacity="0.2" d="M982.192 423.591L595.023 622.866C592.818 624.144 590.983 625.869 589.668 627.899C588.353 629.93 587.594 632.21 587.454 634.552V740.915C587.454 745.2 590.831 746.939 595.023 744.81L982.192 545.405C984.397 544.127 986.231 542.402 987.547 540.372C988.862 538.341 989.621 536.061 989.761 533.719V427.486C989.615 423.201 986.238 421.513 982.192 423.591Z" fill="white"/>
<path d="M735.772 568.1L805.928 531.979C809.421 530.188 812.245 531.46 812.245 534.81C812.091 536.702 811.439 538.534 810.341 540.159C809.244 541.783 807.732 543.154 805.928 544.158L735.772 580.279C732.279 582.071 729.455 580.799 729.455 577.449C729.609 575.557 730.261 573.724 731.359 572.1C732.456 570.475 733.969 569.105 735.772 568.1Z" fill="white"/>
<path d="M729.455 601.806C729.455 605.156 732.366 606.428 735.772 604.637L947.842 495.417C949.634 494.41 951.137 493.042 952.229 491.423C953.321 489.804 953.972 487.979 954.129 486.095C954.129 482.719 951.218 481.446 947.842 483.238L735.772 592.458C733.969 593.463 732.456 594.833 731.359 596.457C730.261 598.082 729.609 599.914 729.455 601.806Z" fill="white"/>
<path d="M729.455 626.164C729.455 629.514 732.366 630.786 735.772 628.994L947.842 519.775C949.634 518.768 951.137 517.4 952.229 515.781C953.321 514.162 953.972 512.337 954.129 510.452C954.129 507.076 951.218 505.804 947.842 507.596L735.772 616.816C733.969 617.82 732.456 619.191 731.359 620.815C730.261 622.44 729.609 624.272 729.455 626.164Z" fill="white"/>
<path d="M729.455 650.522C729.455 653.872 732.366 655.144 735.772 653.352L947.842 544.132C949.634 543.126 951.137 541.758 952.229 540.139C953.321 538.52 953.972 536.694 954.129 534.81C954.129 531.434 951.218 530.162 947.842 531.954L735.772 641.173C733.969 642.178 732.456 643.548 731.359 645.173C730.261 646.797 729.609 648.63 729.455 650.522Z" fill="white"/>
<path d="M606.958 628.968L698.249 581.941C702.441 579.786 705.817 581.525 705.817 585.836V667.686C705.682 670.029 704.926 672.31 703.61 674.341C702.294 676.373 700.457 678.097 698.249 679.371L606.958 726.399C602.796 728.554 599.39 726.814 599.39 722.504V640.654C599.53 638.312 600.288 636.032 601.603 634.002C602.919 631.971 604.754 630.246 606.958 628.968Z" fill="white"/>
<path d="M680.899 622.814L653.739 673.036L639.911 665.894C639.248 665.555 638.516 665.336 637.758 665.249C637 665.161 636.23 665.209 635.492 665.387C634.754 665.565 634.062 665.872 633.457 666.289C632.852 666.705 632.345 667.224 631.964 667.816L599.39 718.115V722.504C599.39 726.814 602.796 728.554 606.958 726.399L698.249 679.372C700.453 678.099 702.288 676.38 703.603 674.353C704.919 672.326 705.678 670.051 705.817 667.712V638.94L687.449 621.879C687.038 621.394 686.487 621.018 685.854 620.791C685.222 620.564 684.532 620.494 683.859 620.59C683.186 620.686 682.554 620.944 682.033 621.336C681.512 621.728 681.119 622.239 680.899 622.814Z" fill="#BA68C8"/>
<path d="M613.101 658.909C618.744 655.63 623.441 651.21 626.81 646.008C630.178 640.805 632.124 634.968 632.488 628.969C632.682 626.976 632.345 624.97 631.506 623.116C630.666 621.261 629.347 619.61 627.656 618.296L606.958 628.969C604.754 630.246 602.919 631.971 601.603 634.002C600.288 636.032 599.53 638.312 599.39 640.654V660.13C602.912 661.921 607.744 661.662 613.101 658.909Z" fill="#BA68C8"/>
<path d="M977.796 96.9182V80.3768C977.796 76.0662 974.39 74.3263 970.227 76.4816L465.074 336.651C462.869 337.929 461.035 339.654 459.719 341.684C458.404 343.715 457.645 345.995 457.505 348.337V364.904L977.796 96.9182Z" fill="#BA68C8"/>
<path d="M915.82 110.837C914.192 111.791 912.838 113.073 911.867 114.579C910.896 116.086 910.335 117.775 910.231 119.51C910.231 122.704 912.734 124.002 915.82 122.392C917.458 121.452 918.822 120.177 919.799 118.673C920.776 117.17 921.338 115.481 921.438 113.745C921.438 110.551 918.935 109.253 915.82 110.837Z" fill="#F5F5F5"/>
<path d="M938.09 99.515C936.456 100.466 935.096 101.747 934.12 103.253C933.144 104.76 932.579 106.451 932.471 108.188C932.471 111.382 935.004 112.655 938.09 111.071C939.728 110.124 941.092 108.845 942.068 107.337C943.045 105.829 943.607 104.136 943.708 102.397C943.708 99.0736 941.204 97.8012 938.09 99.515Z" fill="#F5F5F5"/>
<path d="M960.359 87.9333C958.721 88.874 957.357 90.1487 956.38 91.6523C955.403 93.1558 954.841 94.8451 954.741 96.5805C954.741 99.7746 957.244 101.073 960.359 99.4889C961.987 98.535 963.342 97.2531 964.312 95.7466C965.283 94.24 965.844 92.551 965.948 90.8157C965.948 87.6217 963.445 86.3233 960.359 87.9333Z" fill="#F5F5F5"/>
<path d="M985.86 902.485C986.74 904.481 987.346 906.565 987.665 908.691C988.485 910.891 988.675 913.239 988.218 915.521C986.256 918.435 983.139 920.585 979.485 921.545C976.884 922.08 974.187 922.125 971.566 921.678C968.944 921.23 966.456 920.301 964.26 918.949C958.933 916.118 954.945 912.665 947.376 910.769C941.978 909.732 936.894 907.668 932.471 904.718C928.279 901.732 922.69 893.423 930.696 891.501C938.701 889.579 956.138 896.357 972.003 896.98L985.86 902.485Z" fill="#263238"/>
<path d="M985.103 893.137C985.103 893.137 986.034 903.057 986.034 904.277C986.034 907.627 972.178 912.067 969.616 904.277L967.404 893.734L985.103 893.137Z" fill="#F28F8F"/>
<path d="M968.102 675.502C972.867 681.752 977.231 688.237 981.173 694.926C981.173 694.926 982.541 709.364 982.541 718.972C982.541 736.63 979.485 750.263 976.719 785.06C981.222 791.905 983.799 799.621 984.23 807.548C985.394 823.31 985.423 823.128 985.54 895.838C982.887 897.114 979.976 897.905 976.977 898.163C973.977 898.422 970.95 898.143 968.073 897.344L941.874 795.525L938.963 755.561L930.754 705.885L968.102 675.502Z" fill="#37474F"/>
<path d="M906.097 920.689C907.029 921.545 906.709 923.285 907.145 926.142C907.629 928.339 907.757 930.586 907.524 932.815C905.996 935.903 903.236 938.374 899.78 939.749C897.268 940.557 894.595 940.893 891.93 940.737C889.265 940.581 886.666 939.935 884.294 938.84C878.646 936.607 874.192 933.646 866.42 932.582C860.919 932.159 855.586 930.68 850.787 928.245C846.217 925.648 839.493 918.118 847.178 915.261C854.863 912.405 874.134 917.52 889.941 916.378L906.097 920.689Z" fill="#263238"/>
<path d="M909.736 908.224C909.736 908.224 906.825 919.546 906.039 922.065C904.292 928.115 889.242 928.427 889.242 921.442L890.261 905.342L909.736 908.224Z" fill="#F28F8F"/>
<path d="M934.131 678.593C941.67 691.81 948.948 703.469 949.181 717.544C949.734 747.329 935.877 780.126 930.783 801.653C932.301 809.444 932.731 817.372 932.064 825.258C931.045 834.268 908.018 916.144 908.018 916.144C908.018 916.144 895.21 918.533 889.766 913.366L896.229 755.716L897.975 709.935L934.131 678.593Z" fill="#37474F"/>
<path d="M923.767 597.859L928.512 621.308L952.266 619.75L947.289 593.185L923.767 597.859Z" fill="#FFA8A7"/>
<path d="M977.33 618.036C974.972 611.674 965.919 604.741 956.953 606.247C943.486 608.289 930.212 611.24 917.247 615.076C908.95 617.672 901.381 624.138 900.683 648.496L898.092 709.78C901.679 712.625 905.983 714.656 910.638 715.7C923.243 718.79 931.569 720.634 950.724 716.895C975.671 712.039 981.61 698.562 981.61 698.562C981.61 698.562 980.649 666.128 979.892 648.496C979.281 633.513 978.931 622.424 977.33 618.036Z" fill="#455A64"/>
<path d="M913.637 567.919L792.683 538.653C781.737 536.965 777.167 560.803 788.112 562.465L912.327 573.657L913.637 567.919Z" fill="#263238"/>
<path d="M878.85 617.361L854.135 618.036C854.135 618.036 857.861 585.239 860.161 580.928C862.461 576.618 867.963 575.735 873.435 574.358C878.908 572.982 878.879 570.645 878.879 570.645L873.959 570.204C869.651 569.814 867.934 565.01 869.797 561.764C870.699 560.258 872.154 557.869 874.774 558.518L881.295 560.102C881.396 557.536 880.679 554.997 879.228 552.779C877.045 550.624 875.59 551.299 871.223 549.949C867.992 548.936 861.384 547.144 856.056 549.092C850.729 551.04 846.683 559.972 845.315 566.283C843.93 573.579 841.686 580.725 838.619 587.602C833.874 599.287 826.975 623.281 826.247 632.889C825.927 637.33 826.393 639.979 831.924 641.147C837.455 642.316 878.151 642.394 878.151 642.394L878.85 617.361Z" fill="#FFA8A7"/>
<path d="M906.185 570.1C906.185 570.1 900.362 577.682 901.178 578.513C902.492 579.296 903.95 579.867 905.486 580.201L906.185 570.1Z" fill="#FFA8A7"/>
<path d="M923.738 546.158C918.207 548.755 908.659 553.247 906.01 571.32C903.303 589.861 906.883 595.834 909.678 598.301C911.599 599.963 921.904 600.067 927.144 598.664C933.607 596.95 948.191 591.991 954.857 582.46C962.688 571.242 964.434 556.233 955.614 550.261C951.126 547.224 945.846 545.254 940.27 544.536C934.694 543.818 929.006 544.376 923.738 546.158Z" fill="#FFA8A7"/>
<path d="M940.011 769.921L952.616 738.136C962.386 735.047 971.14 729.835 978.087 722.971C978.087 722.971 975.176 732.034 955.265 741.33L941.437 771.401V788.124L940.011 769.921Z" fill="#263238"/>
<path d="M904.875 552.26C906.679 556.701 909.736 567.607 922.486 572.151C922.486 572.151 924.32 565.218 930.841 565.945C937.362 566.672 938.497 574.125 934.48 578.747C930.463 583.369 926.562 581.707 926.562 581.707C926.562 581.707 925.689 591.653 933.141 596.171C935.915 597.631 939.031 598.496 942.244 598.698C945.456 598.901 948.678 598.436 951.655 597.34C955.934 595.6 962.018 586.433 965.57 578.903C973.08 563.011 974.157 550.338 962.659 546.236C961.232 539.017 957.594 536.29 950.258 534.94C934.48 532.057 922.545 541.302 909.299 539.666C902.517 538.809 902.779 547.17 904.875 552.26Z" fill="#263238"/>
<path d="M963.037 548.754L970.49 544.626C969.84 543.816 968.87 543.257 967.775 543.062C966.68 542.867 965.543 543.051 964.595 543.576C963.647 544.101 962.958 544.929 962.669 545.891C962.38 546.852 962.511 547.876 963.037 548.754Z" fill="#263238"/>
<path d="M873.319 616.92C873.319 616.92 908.106 615.128 916.985 615.076C925.863 615.024 935.295 628.553 929.764 637.771C926.096 643.822 914.656 645.899 900.246 646.523C885.836 647.146 871.31 647.146 871.31 647.146C871.31 647.146 858.356 633.98 873.319 616.92Z" fill="#455A64"/>
<path d="M900.683 646.523C900.683 646.523 922.719 646.263 929.939 637.771C929.939 637.771 928.25 642.965 919.692 646.159C913.558 648.262 907.097 649.506 900.537 649.846L900.683 646.523Z" fill="#37474F"/>
<path d="M792.683 538.653C781.737 536.965 777.167 560.803 788.112 562.465L805.579 564.023C798.476 563.374 803.396 541.224 808.81 542.522L792.683 538.653Z" fill="#455A64"/>
<path d="M1233.18 532.291C1233.18 537.125 1231.55 541.847 1228.5 545.842C1225.45 549.836 1221.12 552.918 1216.08 554.684C1211.03 556.45 1205.51 556.819 1200.22 555.743C1194.94 554.667 1190.14 552.195 1186.46 548.651L1184.68 546.729C1180.54 541.8 1178.68 535.64 1179.48 529.521C1180.27 523.401 1183.68 517.789 1188.98 513.842C1194.28 509.894 1201.08 507.913 1207.97 508.307C1214.87 508.7 1221.33 511.439 1226.02 515.958L1227.85 517.931C1231.31 522.084 1233.18 527.119 1233.18 532.291Z" fill="#455A64"/>
<path d="M1233.18 532.291C1233.18 537.125 1231.55 541.847 1228.5 545.842C1225.45 549.837 1221.12 552.918 1216.08 554.684C1211.03 556.45 1205.51 556.819 1200.22 555.743C1194.94 554.667 1190.14 552.195 1186.46 548.651L1184.68 546.729L1072.43 425.798L1119.74 401.44L1226.02 515.906L1227.85 517.879C1231.32 522.046 1233.19 527.101 1233.18 532.291Z" fill="#455A64"/>
<path d="M1140.32 498.923C1145.03 503.333 1151.45 505.983 1158.27 506.335C1165.09 506.688 1171.81 504.718 1177.06 500.822C1182.31 496.927 1185.71 491.398 1186.57 485.352C1187.43 479.307 1185.68 473.196 1181.69 468.255L1167.8 453.323C1171.95 458.255 1173.82 464.42 1173.02 470.545C1172.22 476.67 1168.81 482.287 1163.5 486.234C1158.19 490.181 1151.38 492.158 1144.48 491.755C1137.58 491.352 1131.12 488.6 1126.43 484.069L1140.32 498.923Z" fill="#BA68C8"/>
<path d="M1117.93 211.331C1126.41 212.173 1134.6 214.55 1142.01 218.317L1107.86 200.607C1084.95 186.558 1051.97 187.389 1015.32 206.242C946.124 241.895 889.999 328.601 889.999 399.908C889.999 434.939 903.361 459.971 925.397 471.865L925.863 472.124L962.309 490.847C955.846 487.096 950.212 482.316 945.687 476.746C954.667 477.623 963.748 477.158 972.556 475.37C975.758 474.747 978.99 473.994 982.279 473.059C981.849 472.943 981.43 472.796 981.027 472.618C979.276 471.886 977.6 471.017 976.02 470.021C973.155 468.239 970.604 466.086 968.452 463.633C965.509 460.273 963.118 456.557 961.349 452.597C958.977 452.902 956.584 453.059 954.188 453.064C948.522 453.165 942.899 452.164 937.711 450.13C936.498 449.634 935.322 449.07 934.189 448.442C933.17 447.87 932.151 447.195 931.278 446.52C929.172 437.73 928.147 428.762 928.221 419.773C928.221 348.492 984.346 261.761 1053.6 226.107C1062.44 221.506 1071.81 217.763 1081.55 214.941C1084.17 215.897 1086.64 217.164 1088.88 218.706C1091.26 220.333 1093.4 222.217 1095.26 224.315C1098.21 227.683 1100.61 231.408 1102.39 235.378C1104.77 235.08 1107.17 234.932 1109.58 234.936C1116.16 234.778 1122.67 236.185 1128.44 239.013C1129.9 239.723 1131.3 240.539 1132.61 241.454C1132.08 239.377 1131.53 237.325 1130.86 235.378C1128.23 226.727 1123.85 218.577 1117.93 211.331Z" fill="#263238"/>
<path d="M1142.01 218.317L1140.03 217.356C1133.15 214.141 1125.65 212.098 1117.93 211.332C1109.65 210.507 1101.27 210.849 1093.1 212.344C1089.17 213.009 1085.28 213.876 1081.46 214.941C1071.72 217.763 1062.35 221.506 1053.51 226.107C984.259 261.761 928.134 348.492 928.134 419.773C928.06 428.762 929.085 437.73 931.19 446.52C931.569 448.104 932.005 449.61 932.442 451.116C935.036 460.308 939.539 468.983 945.716 476.694C948.475 480.088 951.648 483.197 955.177 485.965C957.428 487.73 959.821 489.344 962.339 490.795C985.19 503.96 1017.65 502.818 1053.45 484.329C1122.71 448.675 1178.83 361.97 1178.83 290.663C1178.8 255.009 1164.74 229.95 1142.01 218.317ZM1128.33 239.091C1129.79 239.801 1131.18 240.617 1132.49 241.532C1134.68 243.122 1136.68 244.915 1138.46 246.881C1147.19 256.645 1151.82 271.836 1151.82 290.74C1151.82 353.063 1100.58 432.316 1039.95 463.555C1024.66 471.345 1009.96 475.604 997.475 475.604C992.265 475.658 987.097 474.775 982.279 473.007C981.849 472.892 981.43 472.744 981.027 472.566C979.276 471.834 977.6 470.965 976.02 469.969C974.056 468.739 972.241 467.329 970.606 465.762C969.878 465.087 969.18 464.334 968.481 463.581C965.538 460.221 963.147 456.505 961.378 452.545C956.943 442.065 954.828 430.919 955.148 419.722C955.148 418.891 955.148 418.086 955.148 417.125C956.429 355.062 1007.11 277.601 1066.96 246.803C1068.33 246.102 1069.73 245.401 1071.12 244.752C1080.78 239.942 1091.32 236.715 1102.24 235.222C1104.63 234.924 1107.03 234.777 1109.43 234.78C1114.61 234.74 1119.75 235.623 1124.54 237.377C1125.85 237.842 1127.12 238.407 1128.33 239.065V239.091Z" fill="#455A64"/>
<path opacity="0.6" d="M1140.12 283.521C1140.12 345.844 1088.88 425.097 1028.24 456.336C1012.96 464.126 998.29 468.385 985.773 468.385C980.573 468.439 975.414 467.556 970.606 465.788C969.878 465.113 969.18 464.36 968.481 463.607C965.539 460.247 963.147 456.531 961.378 452.571C956.944 442.091 954.828 430.945 955.148 419.748C955.148 418.917 955.148 418.112 955.148 417.151C956.429 355.088 1007.11 277.627 1066.96 246.829C1068.33 246.128 1069.73 245.427 1071.12 244.778C1080.78 239.968 1091.32 236.741 1102.24 235.248C1104.63 234.95 1107.03 234.803 1109.43 234.806C1114.61 234.766 1119.75 235.649 1124.54 237.403C1125.33 238.104 1126.06 238.857 1126.75 239.61C1135.49 249.426 1140.12 264.617 1140.12 283.521Z" fill="white"/>
<defs>
<filter id="filter0_d_6_114" x="90.1682" y="439.869" width="1271.12" height="590.087" filterUnits="userSpaceOnUse" color-interpolation-filters="sRGB">
<feFlood flood-opacity="0" result="BackgroundImageFix"/>
<feColorMatrix in="SourceAlpha" type="matrix" values="0 0 0 0 0 0 0 0 0 0 0 0 0 0 0 0 0 0 127 0" result="hardAlpha"/>
<feOffset dx="18" dy="4"/>
<feGaussianBlur stdDeviation="2"/>
<feComposite in2="hardAlpha" operator="out"/>
<feColorMatrix type="matrix" values="0 0 0 0 0 0 0 0 0 0 0 0 0 0 0 0 0 0 0.25 0"/>
<feBlend mode="normal" in2="BackgroundImageFix" result="effect1_dropShadow_6_114"/>
<feBlend mode="normal" in="SourceGraphic" in2="effect1_dropShadow_6_114" result="shape"/>
</filter>
<linearGradient id="paint0_linear_6_114" x1="140.893" y1="0" x2="140.893" y2="1080.05" gradientUnits="userSpaceOnUse">
<stop stop-color="#756487"/>
<stop offset="1" stop-color="#896D6D" stop-opacity="0"/>
</linearGradient>
</defs>
</svg>
